<mxfile host="app.diagrams.net" agent="Mozilla/5.0 (Windows NT 10.0; Win64; x64) AppleWebKit/537.36 (KHTML, like Gecko) Chrome/132.0.0.0 Safari/537.36 Edg/132.0.0.0" version="26.0.11">
  <diagram name="Page-1" id="66JnUmUgUzkKi6WG74JA">
    <mxGraphModel dx="882" dy="509" grid="1" gridSize="10" guides="1" tooltips="1" connect="1" arrows="1" fold="1" page="1" pageScale="1" pageWidth="1100" pageHeight="850" math="0" shadow="0">
      <root>
        <mxCell id="0" />
        <mxCell id="1" parent="0" />
        <mxCell id="vXxr4whwp9rRGSsiy-hN-14" value="" style="shape=umlLifeline;perimeter=lifelinePerimeter;whiteSpace=wrap;html=1;container=1;dropTarget=0;collapsible=0;recursiveResize=0;outlineConnect=0;portConstraint=eastwest;newEdgeStyle={&quot;curved&quot;:0,&quot;rounded&quot;:0};participant=umlActor;" parent="1" vertex="1">
          <mxGeometry x="110" y="90" width="20" height="500" as="geometry" />
        </mxCell>
        <mxCell id="vXxr4whwp9rRGSsiy-hN-22" value="" style="endArrow=block;dashed=1;endFill=0;endSize=12;html=1;rounded=0;exitX=0.033;exitY=0.787;exitDx=0;exitDy=0;exitPerimeter=0;" parent="1" source="vXxr4whwp9rRGSsiy-hN-5" edge="1">
          <mxGeometry width="160" relative="1" as="geometry">
            <mxPoint x="455" y="474.5" as="sourcePoint" />
            <mxPoint x="275" y="475" as="targetPoint" />
          </mxGeometry>
        </mxCell>
        <mxCell id="vXxr4whwp9rRGSsiy-hN-23" value="Error" style="edgeLabel;html=1;align=center;verticalAlign=middle;resizable=0;points=[];" parent="vXxr4whwp9rRGSsiy-hN-22" connectable="0" vertex="1">
          <mxGeometry x="0.0144" relative="1" as="geometry">
            <mxPoint y="-8" as="offset" />
          </mxGeometry>
        </mxCell>
        <mxCell id="vXxr4whwp9rRGSsiy-hN-15" value="Update password" style="html=1;verticalAlign=bottom;endArrow=block;curved=0;rounded=0;entryX=0.767;entryY=0.52;entryDx=0;entryDy=0;entryPerimeter=0;exitX=0.025;exitY=0.374;exitDx=0;exitDy=0;exitPerimeter=0;" parent="1" edge="1" source="vXxr4whwp9rRGSsiy-hN-2">
          <mxGeometry x="0.0503" width="80" relative="1" as="geometry">
            <mxPoint x="273" y="310" as="sourcePoint" />
            <mxPoint x="445.6700000000001" y="309.53" as="targetPoint" />
            <mxPoint as="offset" />
          </mxGeometry>
        </mxCell>
        <mxCell id="vXxr4whwp9rRGSsiy-hN-1" value="UI" style="shape=umlLifeline;perimeter=lifelinePerimeter;whiteSpace=wrap;html=1;container=1;collapsible=0;recursiveResize=0;outlineConnect=0;rounded=1;shadow=0;comic=0;labelBackgroundColor=none;strokeWidth=1;fontFamily=Verdana;fontSize=12;align=center;" parent="1" vertex="1">
          <mxGeometry x="220" y="80" width="100" height="510" as="geometry" />
        </mxCell>
        <mxCell id="vXxr4whwp9rRGSsiy-hN-2" value="" style="html=1;points=[];perimeter=orthogonalPerimeter;rounded=0;shadow=0;comic=0;labelBackgroundColor=none;strokeWidth=1;fontFamily=Verdana;fontSize=12;align=center;" parent="vXxr4whwp9rRGSsiy-hN-1" vertex="1">
          <mxGeometry x="45" y="80" width="10" height="400" as="geometry" />
        </mxCell>
        <mxCell id="vXxr4whwp9rRGSsiy-hN-3" value="Enter OTP," style="html=1;verticalAlign=bottom;startArrow=none;startFill=0;endArrow=block;startSize=8;curved=0;rounded=0;entryX=0.367;entryY=0.458;entryDx=0;entryDy=0;entryPerimeter=0;exitX=-0.017;exitY=0.282;exitDx=0;exitDy=0;exitPerimeter=0;" parent="vXxr4whwp9rRGSsiy-hN-1" edge="1" source="vXxr4whwp9rRGSsiy-hN-13">
          <mxGeometry width="60" relative="1" as="geometry">
            <mxPoint x="-100" y="193" as="sourcePoint" />
            <mxPoint x="45.00000000000006" y="193.04000000000008" as="targetPoint" />
          </mxGeometry>
        </mxCell>
        <mxCell id="vXxr4whwp9rRGSsiy-hN-4" value="Server" style="shape=umlLifeline;perimeter=lifelinePerimeter;whiteSpace=wrap;html=1;container=1;collapsible=0;recursiveResize=0;outlineConnect=0;rounded=1;shadow=0;comic=0;labelBackgroundColor=none;strokeWidth=1;fontFamily=Verdana;fontSize=12;align=center;" parent="1" vertex="1">
          <mxGeometry x="400" y="80" width="100" height="510" as="geometry" />
        </mxCell>
        <mxCell id="vXxr4whwp9rRGSsiy-hN-6" value="" style="endArrow=block;dashed=1;endFill=0;endSize=12;html=1;rounded=0;" parent="vXxr4whwp9rRGSsiy-hN-4" source="vXxr4whwp9rRGSsiy-hN-4" edge="1">
          <mxGeometry width="160" relative="1" as="geometry">
            <mxPoint x="52.82999999999993" y="160.00000000000006" as="sourcePoint" />
            <mxPoint x="-275" y="160.00000000000006" as="targetPoint" />
          </mxGeometry>
        </mxCell>
        <mxCell id="vXxr4whwp9rRGSsiy-hN-7" value="Send OTP for password recovery" style="edgeLabel;html=1;align=center;verticalAlign=middle;resizable=0;points=[];" parent="vXxr4whwp9rRGSsiy-hN-6" connectable="0" vertex="1">
          <mxGeometry x="0.0147" y="-3" relative="1" as="geometry">
            <mxPoint y="-7" as="offset" />
          </mxGeometry>
        </mxCell>
        <mxCell id="vXxr4whwp9rRGSsiy-hN-5" value="" style="html=1;points=[];perimeter=orthogonalPerimeter;rounded=0;shadow=0;comic=0;labelBackgroundColor=none;strokeWidth=1;fontFamily=Verdana;fontSize=12;align=center;" parent="vXxr4whwp9rRGSsiy-hN-4" vertex="1">
          <mxGeometry x="45" y="80" width="10" height="400" as="geometry" />
        </mxCell>
        <mxCell id="vXxr4whwp9rRGSsiy-hN-8" value="Database" style="shape=umlLifeline;perimeter=lifelinePerimeter;whiteSpace=wrap;html=1;container=1;collapsible=0;recursiveResize=0;outlineConnect=0;rounded=1;shadow=0;comic=0;labelBackgroundColor=none;strokeWidth=1;fontFamily=Verdana;fontSize=12;align=center;" parent="1" vertex="1">
          <mxGeometry x="540" y="80" width="100" height="510" as="geometry" />
        </mxCell>
        <mxCell id="vXxr4whwp9rRGSsiy-hN-9" value="Update password" style="html=1;verticalAlign=bottom;endArrow=block;labelBackgroundColor=none;fontFamily=Verdana;fontSize=12;edgeStyle=elbowEdgeStyle;elbow=vertical;" parent="vXxr4whwp9rRGSsiy-hN-8" edge="1">
          <mxGeometry relative="1" as="geometry">
            <mxPoint x="-85" y="250" as="sourcePoint" />
            <Array as="points">
              <mxPoint x="-80" y="250" />
            </Array>
            <mxPoint x="45" y="250" as="targetPoint" />
          </mxGeometry>
        </mxCell>
        <mxCell id="vXxr4whwp9rRGSsiy-hN-24" value="Register OTP await" style="html=1;verticalAlign=bottom;endArrow=block;labelBackgroundColor=none;fontFamily=Verdana;fontSize=12;edgeStyle=elbowEdgeStyle;elbow=vertical;entryX=0.033;entryY=0.128;entryDx=0;entryDy=0;entryPerimeter=0;" parent="vXxr4whwp9rRGSsiy-hN-8" target="vXxr4whwp9rRGSsiy-hN-10" edge="1">
          <mxGeometry relative="1" as="geometry">
            <mxPoint x="-85" y="130" as="sourcePoint" />
            <mxPoint x="40" y="130" as="targetPoint" />
          </mxGeometry>
        </mxCell>
        <mxCell id="vXxr4whwp9rRGSsiy-hN-10" value="" style="html=1;points=[];perimeter=orthogonalPerimeter;rounded=0;shadow=0;comic=0;labelBackgroundColor=none;strokeWidth=1;fontFamily=Verdana;fontSize=12;align=center;" parent="1" vertex="1">
          <mxGeometry x="585" y="160" width="10" height="400" as="geometry" />
        </mxCell>
        <mxCell id="vXxr4whwp9rRGSsiy-hN-11" value="Enter Email" style="html=1;verticalAlign=bottom;endArrow=block;entryX=0;entryY=0;labelBackgroundColor=none;fontFamily=Verdana;fontSize=12;edgeStyle=elbowEdgeStyle;elbow=vertical;" parent="1" edge="1">
          <mxGeometry relative="1" as="geometry">
            <mxPoint x="119.25" y="176" as="sourcePoint" />
            <mxPoint x="264.75" y="176.0000000000008" as="targetPoint" />
          </mxGeometry>
        </mxCell>
        <mxCell id="vXxr4whwp9rRGSsiy-hN-12" value="Forgot password request" style="html=1;verticalAlign=bottom;endArrow=block;entryX=0;entryY=0;labelBackgroundColor=none;fontFamily=Verdana;fontSize=12;edgeStyle=elbowEdgeStyle;elbow=vertical;" parent="1" edge="1">
          <mxGeometry relative="1" as="geometry">
            <mxPoint x="275" y="196" as="sourcePoint" />
            <mxPoint x="445" y="196.0000000000008" as="targetPoint" />
          </mxGeometry>
        </mxCell>
        <mxCell id="vXxr4whwp9rRGSsiy-hN-13" value="" style="html=1;points=[];perimeter=orthogonalPerimeter;rounded=0;shadow=0;comic=0;labelBackgroundColor=none;strokeWidth=1;fontFamily=Verdana;fontSize=12;align=center;" parent="1" vertex="1">
          <mxGeometry x="115" y="160" width="10" height="400" as="geometry" />
        </mxCell>
        <mxCell id="vXxr4whwp9rRGSsiy-hN-16" value="alt" style="shape=umlFrame;whiteSpace=wrap;html=1;pointerEvents=0;" parent="1" vertex="1">
          <mxGeometry x="80" y="350" width="570" height="170" as="geometry" />
        </mxCell>
        <mxCell id="vXxr4whwp9rRGSsiy-hN-17" value="" style="endArrow=none;dashed=1;html=1;dashPattern=1 3;strokeWidth=2;rounded=0;exitX=0.001;exitY=0.498;exitDx=0;exitDy=0;exitPerimeter=0;entryX=0.996;entryY=0.498;entryDx=0;entryDy=0;entryPerimeter=0;" parent="1" source="vXxr4whwp9rRGSsiy-hN-16" target="vXxr4whwp9rRGSsiy-hN-16" edge="1">
          <mxGeometry width="50" height="50" relative="1" as="geometry">
            <mxPoint x="330" y="330" as="sourcePoint" />
            <mxPoint x="380" y="280" as="targetPoint" />
          </mxGeometry>
        </mxCell>
        <mxCell id="vXxr4whwp9rRGSsiy-hN-18" value="[Password Update: Successful]" style="text;strokeColor=none;align=center;fillColor=none;html=1;verticalAlign=middle;whiteSpace=wrap;rounded=0;" parent="1" vertex="1">
          <mxGeometry x="90" y="390" width="180" height="30" as="geometry" />
        </mxCell>
        <mxCell id="vXxr4whwp9rRGSsiy-hN-19" value="" style="endArrow=block;dashed=1;endFill=0;endSize=12;html=1;rounded=0;" parent="1" edge="1">
          <mxGeometry width="160" relative="1" as="geometry">
            <mxPoint x="445" y="405" as="sourcePoint" />
            <mxPoint x="275" y="405" as="targetPoint" />
          </mxGeometry>
        </mxCell>
        <mxCell id="vXxr4whwp9rRGSsiy-hN-20" value="Success Message" style="edgeLabel;html=1;align=center;verticalAlign=middle;resizable=0;points=[];" parent="vXxr4whwp9rRGSsiy-hN-19" connectable="0" vertex="1">
          <mxGeometry x="0.0144" relative="1" as="geometry">
            <mxPoint y="-9" as="offset" />
          </mxGeometry>
        </mxCell>
        <mxCell id="vXxr4whwp9rRGSsiy-hN-21" value="[Password Update: Fail]" style="text;strokeColor=none;align=center;fillColor=none;html=1;verticalAlign=middle;whiteSpace=wrap;rounded=0;" parent="1" vertex="1">
          <mxGeometry x="125" y="460" width="131" height="30" as="geometry" />
        </mxCell>
        <mxCell id="YxCQb5QdbEkdp6YbDWcC-1" value="&lt;span style=&quot;font-size: 11px; background-color: rgb(255, 255, 255);&quot;&gt;&amp;nbsp;new password&lt;/span&gt;" style="text;html=1;align=center;verticalAlign=middle;resizable=0;points=[];autosize=1;strokeColor=none;fillColor=none;" vertex="1" parent="1">
          <mxGeometry x="138" y="265" width="100" height="30" as="geometry" />
        </mxCell>
        <mxCell id="YxCQb5QdbEkdp6YbDWcC-2" value="&lt;span style=&quot;font-size: 11px; background-color: rgb(255, 255, 255);&quot;&gt;request&lt;/span&gt;" style="text;html=1;align=center;verticalAlign=middle;resizable=0;points=[];autosize=1;strokeColor=none;fillColor=none;" vertex="1" parent="1">
          <mxGeometry x="330" y="302" width="60" height="30" as="geometry" />
        </mxCell>
      </root>
    </mxGraphModel>
  </diagram>
</mxfile>
